Coordinates
version=1
nRows=17
nColumns=40
inDegrees=yes

Units are S.I. units (second, meters, Newtons, ...)
Angles are in degrees.

endheader
time	pelvis_tilt	pelvis_list	pelvis_rotation	pelvis_tx	pelvis_ty	pelvis_tz	hip_flexion_r	hip_adduction_r	hip_rotation_r	knee_angle_r	knee_angle_r_beta	ankle_angle_r	subtalar_angle_r	mtp_angle_r	hip_flexion_l	hip_adduction_l	hip_rotation_l	knee_angle_l	knee_angle_l_beta	ankle_angle_l	subtalar_angle_l	mtp_angle_l	lumbar_extension	lumbar_bending	lumbar_rotation	arm_flex_r	arm_add_r	arm_rot_r	elbow_flex_r	pro_sup_r	wrist_flex_r	wrist_dev_r	arm_flex_l	arm_add_l	arm_rot_l	elbow_flex_l	pro_sup_l	wrist_flex_l	wrist_dev_l
     16.08414286	     -1.58055644	     -2.57666051	     10.22645569	      0.97241621	      0.90756512	      0.59072634	     15.25455995	      4.06391833	    -10.20260093	     33.85317931	     33.85317931	     22.31442139	     -7.40716942	     -0.10346180	     31.81557653	    -14.23212585	      3.82618384	     52.71430364	     52.71430364	     14.12938588	    -18.72882637	     16.46872778	    -11.26624513	      5.86324205	      3.48917972	     40.23145906	    -22.91035706	    -17.59820933	     74.67712571	     45.55504898	      0.00000000	      0.00000000	    -19.16617538	     -9.06313125	     23.70533251	     30.30541110	     42.92387025	      0.00000000	      0.00000000
     16.10578571	     -1.56946138	     -2.46274378	     10.94413247	      0.96986536	      0.90735274	      0.58973783	     15.14784370	      3.82957867	    -10.66833097	     34.00525289	     34.00525289	     22.48815710	     -7.65385819	      0.06279733	     31.48750466	    -13.66019508	      3.73343561	     48.17465266	     48.17465266	     11.77876885	    -18.43105756	     11.67613045	    -11.29285913	      6.00894799	      2.77893721	     43.35688984	    -21.72235304	    -15.10378082	     72.00778402	     45.56460762	      0.00000000	      0.00000000	    -19.05476352	     -8.72062267	     25.82247161	     30.78021952	     42.76544735	      0.00000000	      0.00000000
     16.12742857	     -1.64852757	     -2.27673728	     11.55865699	      0.96734208	      0.90779062	      0.58857554	     14.94024028	      3.51198520	    -11.08471270	     33.82719347	     33.82719347	     22.51532382	     -7.76266627	      0.09454042	     31.28870547	    -12.82924716	      3.89160119	     43.99716427	     43.99716427	     11.07540313	    -17.55154011	     11.86434761	    -11.36106746	      6.01777110	      3.32744922	     44.75516652	    -21.41056249	    -14.73607114	     72.40377584	     45.54357212	      0.00000000	      0.00000000	    -18.33898209	     -8.37735598	     26.05283405	     31.15485962	     42.76930090	      0.00000000	      0.00000000
     16.14907143	     -1.76499468	     -2.13538549	     12.06251973	      0.96498725	      0.90874618	      0.58740302	     14.61456469	      3.22730930	    -11.57539745	     33.37481503	     33.37481503	     22.46976610	     -7.54897294	      0.12185864	     31.07082820	    -12.12902861	      3.94595227	     39.94517932	     39.94517932	     10.23918037	    -16.03265098	     11.66064288	    -11.37695809	      6.03255667	      3.75161091	     46.24761311	    -20.99633895	    -14.07973915	     72.66786260	     45.51736663	      0.00000000	      0.00000000	    -17.71575709	     -8.03695833	     26.37993879	     31.42250941	     42.76035795	      0.00000000	      0.00000000
     16.17071429	     -1.93041573	     -2.09313510	     12.45826136	      0.96284268	      0.90993575	      0.58621547	     14.19727242	      3.04174441	    -12.10820515	     32.63383283	     32.63383283	     22.26771698	     -7.09320315	     -0.12718037	     30.74123335	    -11.61315777	      3.88103247	     35.75607906	     35.75607906	      7.73360035	    -14.64880668	      7.29478731	    -11.24395949	      6.09784988	      3.72761912	     48.42491622	    -20.53008825	    -11.75798394	     71.69220451	     45.47787946	      0.00000000	      0.00000000	    -17.40899878	     -7.98266583	     28.22270651	     32.02373299	     42.71749918	      0.00000000	      0.00000000
     16.19235714	     -2.13311430	     -1.98505290	     12.72205996	      0.96090816	      0.91159792	      0.58502622	     13.70304105	      2.82389978	    -12.53605629	     31.72655215	     31.72655215	     22.10868045	     -6.57435304	     -0.03325287	     30.57390811	    -11.07525887	      3.75613435	     32.27851781	     32.27851781	      7.09292708	    -12.32749246	      7.70212559	    -11.14478388	      5.99543848	      4.18845205	     49.77054262	    -20.02488941	    -11.31933302	     72.27622112	     45.44858998	      0.00000000	      0.00000000	    -16.96539987	     -7.76791659	     28.38862629	     32.25977196	     42.72672987	      0.00000000	      0.00000000
     16.21400000	     -2.31906246	     -1.93308764	     12.88233804	      0.95925402	      0.91342677	      0.58384223	     13.07733001	      2.67434659	    -13.01453553	     30.62605566	     30.62605566	     21.90963521	     -5.75242152	      0.01074659	     30.43696254	    -10.68623936	      3.51899495	     29.23508993	     29.23508993	      6.39575184	     -9.82079411	      7.87737659	    -11.04072424	      5.92600444	      4.51741783	     51.23801959	    -19.48477649	    -10.50827440	     72.85986255	     45.40735608	      0.00000000	      0.00000000	    -16.68518749	     -7.63320546	     28.62169398	     32.47581497	     42.72857289	      0.00000000	      0.00000000
     16.23564286	     -2.55995177	     -1.94458383	     12.90959544	      0.95783697	      0.91513444	      0.58265163	     12.46980467	      2.56994061	    -13.54127502	     29.44621246	     29.44621246	     21.62882420	     -4.67935054	     -0.24968600	     30.40992093	    -10.45574200	      3.10686886	     26.64778016	     26.64778016	      5.44472805	     -7.27943673	      7.22705913	    -10.83238746	      5.89467866	      4.61022307	     52.83926927	    -19.04931180	     -8.50843952	     73.19701458	     45.33765757	      0.00000000	      0.00000000	    -16.74195204	     -7.67183875	     29.22310127	     32.95961088	     42.73896033	      0.00000000	      0.00000000
     16.25728571	     -2.78241972	     -1.88706432	     12.84296913	      0.95665541	      0.91698175	      0.58141526	     11.77922051	      2.49568124	    -13.75881334	     28.17752361	     28.17752361	     21.40777378	     -3.92852766	     -0.12691209	     30.29212502	    -10.11482165	      2.94373088	     24.42014569	     24.42014569	      4.59421268	     -5.46689920	      7.54002022	    -10.64100980	      5.71610285	      4.93717985	     54.14178618	    -18.51203656	     -7.87293576	     73.81412667	     45.30190705	      0.00000000	      0.00000000	    -16.65489822	     -7.72705130	     29.36242100	     33.11486786	     42.74601402	      0.00000000	      0.00000000
     16.27892857	     -3.05398997	     -1.92191492	     12.66621921	      0.95568211	      0.91849065	      0.58021118	     11.19140397	      2.48722924	    -14.03477355	     26.98709122	     26.98709122	     21.16848536	     -3.01872631	     -0.03409804	     30.28975233	     -9.92502006	      2.81467339	     22.71207819	     22.71207819	      3.88181516	     -3.83394370	      7.65681797	    -10.41836508	      5.53858958	      5.21861617	     55.39516480	    -17.94055293	     -7.09291360	     74.49995563	     45.25880326	      0.00000000	      0.00000000	    -16.70074211	     -7.80743130	     29.48986670	     33.23028243	     42.74827223	      0.00000000	      0.00000000
     16.30057143	     -3.22616368	     -1.96107317	     12.42411098	      0.95492363	      0.91976702	      0.57881238	     10.47875464	      2.43433016	    -14.46683239	     25.82305444	     25.82305444	     20.98164809	     -1.59040386	     -0.39022367	     30.29076541	     -9.87379287	      2.36789688	     21.57704611	     21.57704611	      2.62435086	     -2.25414917	      6.43254178	    -10.31215814	      5.46913096	      5.13841936	     56.77042544	    -17.65742306	     -4.76937386	     75.29877512	     45.16869693	      0.00000000	      0.00000000	    -16.98897754	     -8.10047912	     29.85821814	     33.72537002	     42.78856876	      0.00000000	      0.00000000
     16.32221429	     -3.61038883	     -2.00847804	     12.06993909	      0.95414871	      0.92036444	      0.57749312	     10.23268875	      2.44045188	    -14.32047532	     25.04628977	     25.04628977	     20.87309656	     -1.10265511	     -0.27470456	     30.56029047	     -9.73127142	      2.37159879	     20.96567397	     20.96567397	      1.84719958	     -1.70110454	      6.63634146	     -9.94512070	      5.24021732	      5.54733969	     57.86864949	    -17.26112533	     -4.51405935	     75.80410217	     45.14878272	      0.00000000	      0.00000000	    -16.96225829	     -8.37536591	     29.85079922	     33.69888726	     42.79679773	      0.00000000	      0.00000000
     16.34385714	     -3.58356532	     -2.12135186	     11.72687462	      0.95396716	      0.92149255	      0.57594095	      9.30013904	      2.57205128	    -14.53273362	     23.87696891	     23.87696891	     20.76268759	      0.04480578	     -0.19691633	     30.14280438	     -9.80207694	      2.24542708	     20.24810855	     20.24810855	      1.00136873	     -0.94020083	      6.38717481	    -10.02154740	      5.18289501	      5.43601049	     58.77547118	    -16.53285058	     -3.60016097	     76.75512883	     45.09313649	      0.00000000	      0.00000000	    -17.11421177	     -8.53516146	     29.96406455	     33.66168123	     42.80439312	      0.00000000	      0.00000000
     16.36550000	     -3.73178077	     -2.23269462	     11.29071054	      0.95381993	      0.92157764	      0.57418767	      8.85739984	      2.55961866	    -14.70339795	     23.32417821	     23.32417821	     20.80717594	      1.16322805	     -0.46146710	     29.97576543	     -9.84885919	      2.13652573	     19.93924008	     19.93924008	     -0.53218675	     -0.91729742	      3.97874771	     -9.90577571	      5.08594409	      5.51405830	     59.59206692	    -16.58689720	     -1.55269724	     77.81676509	     45.01408052	      0.00000000	      0.00000000	    -17.22355428	     -8.87211283	     30.09211078	     33.79695520	     42.90893053	      0.00000000	      0.00000000
     16.38714286	     -3.95164349	     -2.37946795	     10.80993481	      0.95367480	      0.92124323	      0.57242927	      8.67626706	      2.63397915	    -14.39399253	     23.05710855	     23.05710855	     20.92301030	      1.49479454	     -0.47452383	     29.93493831	     -9.93999805	      2.05180984	     20.01698658	     20.01698658	     -0.96081281	     -0.95781602	      4.05515166	     -9.64936099	      4.93302573	      5.73594236	     60.17047427	    -16.22601348	     -1.42399029	     78.13297408	     45.00260703	      0.00000000	      0.00000000	    -17.11102486	     -9.25266305	     30.04009891	     33.71407006	     42.92021342	      0.00000000	      0.00000000
     16.40878571	     -4.10504149	     -2.57898212	     10.34318314	      0.95376797	      0.92069181	      0.57039775	      8.45990770	      2.75000687	    -14.08292581	     22.88761916	     22.88761916	     21.11100392	      1.83543798	     -0.52851148	     29.74775649	    -10.09041416	      1.98490217	     20.13666378	     20.13666378	     -1.16571466	     -1.08198206	      4.05599782	     -9.47345022	      4.84880238	      5.82177853	     60.59350991	    -15.87554200	     -1.26625440	     78.44231721	     44.98949125	      0.00000000	      0.00000000	    -16.93880315	     -9.58505649	     29.99305990	     33.64654883	     42.93050347	      0.00000000	      0.00000000
     16.43042857	     -4.01267646	     -2.83755224	      9.86900287	      0.95406713	      0.92022471	      0.56801367	      7.90388832	      2.92525774	    -13.98399297	     22.59340714	     22.59340714	     21.23672624	      2.46776674	     -0.53048856	     29.31241000	    -10.32220317	      1.98188794	     20.41168782	     20.41168782	     -1.15391339	     -1.54589450	      3.66735479	     -9.66965079	      5.00635886	      5.58603353	     61.22323544	    -15.07634584	     -0.70197942	     79.40103340	     44.94490256	      0.00000000	      0.00000000	    -16.71723029	     -9.73497877	     30.02599722	     33.49509948	     42.94597426	      0.00000000	      0.00000000
